<svg width="26" height="26" viewBox="0 0 26 26" fill="none" xmlns="http://www.w3.org/2000/svg">
<path fill-rule="evenodd" clip-rule="evenodd" d="M6.06776 23.2764L2.46833 19.6965C1.50355 18.7016 0.976001 17.3661 1.0019 15.9841V9.88517C0.962186 8.4743 1.547 7.11716 2.60165 6.17275L6.20108 2.59292C7.15066 1.54402 8.51522 0.962392 9.93382 1.00189H16.1995C17.6181 0.962392 18.9827 1.54402 19.9322 2.59292L23.5317 6.17275C24.4965 7.16765 25.024 8.50319 24.9981 9.88517V16.1167C25.0378 17.5276 24.453 18.8847 23.3984 19.8291L19.7989 23.409C18.8187 24.4145 17.4743 24.9875 16.0662 25H9.93382C8.47913 24.9047 7.10721 24.293 6.06776 23.2764Z" stroke="#077DE9" stroke-width="1.5" stroke-linecap="round" stroke-linejoin="round"/>
<path d="M10.1718 10.172L15.8287 15.8288" stroke="#077DE9" stroke-width="1.5" stroke-linecap="round" stroke-linejoin="round"/>
<path d="M10.172 15.8282L15.8288 10.1713" stroke="#077DE9" stroke-width="1.5" stroke-linecap="round" stroke-linejoin="round"/>
</svg>
