<svg width="18" height="20" viewBox="0 0 18 20" fill="none" xmlns="http://www.w3.org/2000/svg">
<path d="M13 16H15C16.1046 16 17 15.1046 17 14V3C17 1.89543 16.1046 1 15 1H6C4.89543 1 4 1.89543 4 3V5" stroke="#6B7A99" stroke-width="1.8" stroke-linecap="round" stroke-linejoin="round"/>
<path fill-rule="evenodd" clip-rule="evenodd" d="M12.3593 7.47041L10.5296 5.6407C10.1194 5.23047 9.56296 5 8.9828 5H3C1.89543 5 1 5.89543 1 7V17C1 18.1046 1.89543 19 3 19H11C12.1046 19 13 18.1046 13 17V9.0172C13 8.43704 12.7695 7.88065 12.3593 7.47041Z" stroke="#6B7A99" stroke-width="1.8" stroke-linecap="round" stroke-linejoin="round"/>
<path d="M13 9.5H10C9.17157 9.5 8.5 8.82843 8.5 8V5" stroke="#6B7A99" stroke-width="1.8" stroke-linecap="round" stroke-linejoin="round"/>
</svg>
