<svg width="226" height="238" viewBox="0 0 226 238" fill="none" xmlns="http://www.w3.org/2000/svg">
<rect width="226" height="238" rx="12" fill="#6B7A99"/>
<path d="M74.9141 140.297H76.8672C76.8047 141.042 76.5964 141.706 76.2422 142.289C75.888 142.867 75.3906 143.323 74.75 143.656C74.1094 143.99 73.3307 144.156 72.4141 144.156C71.7109 144.156 71.0781 144.031 70.5156 143.781C69.9531 143.526 69.4714 143.167 69.0703 142.703C68.6693 142.234 68.362 141.669 68.1484 141.008C67.9401 140.346 67.8359 139.607 67.8359 138.789V137.844C67.8359 137.026 67.9427 136.286 68.1562 135.625C68.375 134.964 68.6875 134.398 69.0938 133.93C69.5 133.456 69.987 133.094 70.5547 132.844C71.1276 132.594 71.7708 132.469 72.4844 132.469C73.3906 132.469 74.1562 132.635 74.7812 132.969C75.4062 133.302 75.8906 133.763 76.2344 134.352C76.5833 134.94 76.7969 135.615 76.875 136.375H74.9219C74.8698 135.885 74.7552 135.466 74.5781 135.117C74.4062 134.768 74.151 134.503 73.8125 134.32C73.474 134.133 73.0312 134.039 72.4844 134.039C72.0365 134.039 71.6458 134.122 71.3125 134.289C70.9792 134.456 70.7005 134.701 70.4766 135.023C70.2526 135.346 70.0833 135.745 69.9688 136.219C69.8594 136.688 69.8047 137.224 69.8047 137.828V138.789C69.8047 139.362 69.8542 139.883 69.9531 140.352C70.0573 140.815 70.2135 141.214 70.4219 141.547C70.6354 141.88 70.9062 142.138 71.2344 142.32C71.5625 142.503 71.9557 142.594 72.4141 142.594C72.9714 142.594 73.4219 142.505 73.7656 142.328C74.1146 142.151 74.3776 141.893 74.5547 141.555C74.737 141.211 74.8568 140.792 74.9141 140.297ZM80.3203 132V144H78.4453V132H80.3203ZM79.9922 139.461L79.3828 139.453C79.388 138.87 79.4688 138.331 79.625 137.836C79.7865 137.341 80.0104 136.911 80.2969 136.547C80.5885 136.177 80.9375 135.893 81.3438 135.695C81.75 135.492 82.2005 135.391 82.6953 135.391C83.112 135.391 83.487 135.448 83.8203 135.562C84.1589 135.677 84.4505 135.862 84.6953 136.117C84.9401 136.367 85.125 136.695 85.25 137.102C85.3802 137.503 85.4453 137.992 85.4453 138.57V144H83.5547V138.555C83.5547 138.148 83.4948 137.826 83.375 137.586C83.2604 137.346 83.0911 137.174 82.8672 137.07C82.6432 136.961 82.3698 136.906 82.0469 136.906C81.7083 136.906 81.4089 136.974 81.1484 137.109C80.8932 137.245 80.6797 137.43 80.5078 137.664C80.3359 137.898 80.2057 138.169 80.1172 138.477C80.0339 138.784 79.9922 139.112 79.9922 139.461ZM86.9922 139.867V139.688C86.9922 139.078 87.0807 138.513 87.2578 137.992C87.4349 137.466 87.6901 137.01 88.0234 136.625C88.362 136.234 88.7734 135.932 89.2578 135.719C89.7474 135.5 90.2995 135.391 90.9141 135.391C91.5339 135.391 92.0859 135.5 92.5703 135.719C93.0599 135.932 93.474 136.234 93.8125 136.625C94.151 137.01 94.4089 137.466 94.5859 137.992C94.763 138.513 94.8516 139.078 94.8516 139.688V139.867C94.8516 140.477 94.763 141.042 94.5859 141.562C94.4089 142.083 94.151 142.539 93.8125 142.93C93.474 143.315 93.0625 143.617 92.5781 143.836C92.0938 144.049 91.5443 144.156 90.9297 144.156C90.3099 144.156 89.7552 144.049 89.2656 143.836C88.7812 143.617 88.3698 143.315 88.0312 142.93C87.6927 142.539 87.4349 142.083 87.2578 141.562C87.0807 141.042 86.9922 140.477 86.9922 139.867ZM88.875 139.688V139.867C88.875 140.247 88.9141 140.607 88.9922 140.945C89.0703 141.284 89.1927 141.581 89.3594 141.836C89.526 142.091 89.7396 142.292 90 142.438C90.2604 142.583 90.5703 142.656 90.9297 142.656C91.2786 142.656 91.5807 142.583 91.8359 142.438C92.0964 142.292 92.3099 142.091 92.4766 141.836C92.6432 141.581 92.7656 141.284 92.8438 140.945C92.9271 140.607 92.9688 140.247 92.9688 139.867V139.688C92.9688 139.312 92.9271 138.958 92.8438 138.625C92.7656 138.286 92.6406 137.987 92.4688 137.727C92.3021 137.466 92.0885 137.263 91.8281 137.117C91.5729 136.966 91.2682 136.891 90.9141 136.891C90.5599 136.891 90.2526 136.966 89.9922 137.117C89.737 137.263 89.526 137.466 89.3594 137.727C89.1927 137.987 89.0703 138.286 88.9922 138.625C88.9141 138.958 88.875 139.312 88.875 139.688ZM96.0703 139.867V139.688C96.0703 139.078 96.1589 138.513 96.3359 137.992C96.513 137.466 96.7682 137.01 97.1016 136.625C97.4401 136.234 97.8516 135.932 98.3359 135.719C98.8255 135.5 99.3776 135.391 99.9922 135.391C100.612 135.391 101.164 135.5 101.648 135.719C102.138 135.932 102.552 136.234 102.891 136.625C103.229 137.01 103.487 137.466 103.664 137.992C103.841 138.513 103.93 139.078 103.93 139.688V139.867C103.93 140.477 103.841 141.042 103.664 141.562C103.487 142.083 103.229 142.539 102.891 142.93C102.552 143.315 102.141 143.617 101.656 143.836C101.172 144.049 100.622 144.156 100.008 144.156C99.388 144.156 98.8333 144.049 98.3438 143.836C97.8594 143.617 97.4479 143.315 97.1094 142.93C96.7708 142.539 96.513 142.083 96.3359 141.562C96.1589 141.042 96.0703 140.477 96.0703 139.867ZM97.9531 139.688V139.867C97.9531 140.247 97.9922 140.607 98.0703 140.945C98.1484 141.284 98.2708 141.581 98.4375 141.836C98.6042 142.091 98.8177 142.292 99.0781 142.438C99.3385 142.583 99.6484 142.656 100.008 142.656C100.357 142.656 100.659 142.583 100.914 142.438C101.174 142.292 101.388 142.091 101.555 141.836C101.721 141.581 101.844 141.284 101.922 140.945C102.005 140.607 102.047 140.247 102.047 139.867V139.688C102.047 139.312 102.005 138.958 101.922 138.625C101.844 138.286 101.719 137.987 101.547 137.727C101.38 137.466 101.167 137.263 100.906 137.117C100.651 136.966 100.346 136.891 99.9922 136.891C99.638 136.891 99.3307 136.966 99.0703 137.117C98.8151 137.263 98.6042 137.466 98.4375 137.727C98.2708 137.987 98.1484 138.286 98.0703 138.625C97.9922 138.958 97.9531 139.312 97.9531 139.688ZM110.25 141.711C110.25 141.523 110.203 141.354 110.109 141.203C110.016 141.047 109.836 140.906 109.57 140.781C109.31 140.656 108.924 140.542 108.414 140.438C107.966 140.339 107.555 140.221 107.18 140.086C106.81 139.945 106.492 139.776 106.227 139.578C105.961 139.38 105.755 139.146 105.609 138.875C105.464 138.604 105.391 138.292 105.391 137.938C105.391 137.594 105.466 137.268 105.617 136.961C105.768 136.654 105.984 136.383 106.266 136.148C106.547 135.914 106.888 135.729 107.289 135.594C107.695 135.458 108.148 135.391 108.648 135.391C109.357 135.391 109.964 135.51 110.469 135.75C110.979 135.984 111.37 136.305 111.641 136.711C111.911 137.112 112.047 137.565 112.047 138.07H110.164C110.164 137.846 110.107 137.638 109.992 137.445C109.883 137.247 109.716 137.089 109.492 136.969C109.268 136.844 108.987 136.781 108.648 136.781C108.326 136.781 108.057 136.833 107.844 136.938C107.635 137.036 107.479 137.167 107.375 137.328C107.276 137.49 107.227 137.667 107.227 137.859C107.227 138 107.253 138.128 107.305 138.242C107.362 138.352 107.456 138.453 107.586 138.547C107.716 138.635 107.893 138.719 108.117 138.797C108.346 138.875 108.633 138.951 108.977 139.023C109.622 139.159 110.177 139.333 110.641 139.547C111.109 139.755 111.469 140.026 111.719 140.359C111.969 140.688 112.094 141.104 112.094 141.609C112.094 141.984 112.013 142.328 111.852 142.641C111.695 142.948 111.466 143.216 111.164 143.445C110.862 143.669 110.5 143.844 110.078 143.969C109.661 144.094 109.193 144.156 108.672 144.156C107.906 144.156 107.258 144.021 106.727 143.75C106.195 143.474 105.792 143.122 105.516 142.695C105.245 142.263 105.109 141.815 105.109 141.352H106.93C106.951 141.701 107.047 141.979 107.219 142.188C107.396 142.391 107.615 142.539 107.875 142.633C108.141 142.721 108.414 142.766 108.695 142.766C109.034 142.766 109.318 142.721 109.547 142.633C109.776 142.539 109.951 142.414 110.07 142.258C110.19 142.096 110.25 141.914 110.25 141.711ZM117.469 144.156C116.844 144.156 116.279 144.055 115.773 143.852C115.273 143.643 114.846 143.354 114.492 142.984C114.143 142.615 113.875 142.18 113.688 141.68C113.5 141.18 113.406 140.641 113.406 140.062V139.75C113.406 139.089 113.503 138.49 113.695 137.953C113.888 137.417 114.156 136.958 114.5 136.578C114.844 136.193 115.25 135.898 115.719 135.695C116.188 135.492 116.695 135.391 117.242 135.391C117.846 135.391 118.375 135.492 118.828 135.695C119.281 135.898 119.656 136.185 119.953 136.555C120.255 136.919 120.479 137.354 120.625 137.859C120.776 138.365 120.852 138.922 120.852 139.531V140.336H114.32V138.984H118.992V138.836C118.982 138.497 118.914 138.18 118.789 137.883C118.669 137.586 118.484 137.346 118.234 137.164C117.984 136.982 117.651 136.891 117.234 136.891C116.922 136.891 116.643 136.958 116.398 137.094C116.159 137.224 115.958 137.414 115.797 137.664C115.635 137.914 115.51 138.216 115.422 138.57C115.339 138.919 115.297 139.312 115.297 139.75V140.062C115.297 140.432 115.346 140.776 115.445 141.094C115.549 141.406 115.701 141.68 115.898 141.914C116.096 142.148 116.336 142.333 116.617 142.469C116.898 142.599 117.219 142.664 117.578 142.664C118.031 142.664 118.435 142.573 118.789 142.391C119.143 142.208 119.451 141.951 119.711 141.617L120.703 142.578C120.521 142.844 120.284 143.099 119.992 143.344C119.701 143.583 119.344 143.779 118.922 143.93C118.505 144.081 118.021 144.156 117.469 144.156ZM131.07 142.305V138.273C131.07 137.971 131.016 137.711 130.906 137.492C130.797 137.273 130.63 137.104 130.406 136.984C130.188 136.865 129.911 136.805 129.578 136.805C129.271 136.805 129.005 136.857 128.781 136.961C128.557 137.065 128.383 137.206 128.258 137.383C128.133 137.56 128.07 137.76 128.07 137.984H126.195C126.195 137.651 126.276 137.328 126.438 137.016C126.599 136.703 126.833 136.424 127.141 136.18C127.448 135.935 127.815 135.742 128.242 135.602C128.669 135.461 129.148 135.391 129.68 135.391C130.315 135.391 130.878 135.497 131.367 135.711C131.862 135.924 132.25 136.247 132.531 136.68C132.818 137.107 132.961 137.643 132.961 138.289V142.047C132.961 142.432 132.987 142.779 133.039 143.086C133.096 143.388 133.177 143.651 133.281 143.875V144H131.352C131.263 143.797 131.193 143.539 131.141 143.227C131.094 142.909 131.07 142.602 131.07 142.305ZM131.344 138.859L131.359 140.023H130.008C129.659 140.023 129.352 140.057 129.086 140.125C128.82 140.188 128.599 140.281 128.422 140.406C128.245 140.531 128.112 140.682 128.023 140.859C127.935 141.036 127.891 141.237 127.891 141.461C127.891 141.685 127.943 141.891 128.047 142.078C128.151 142.26 128.302 142.404 128.5 142.508C128.703 142.612 128.948 142.664 129.234 142.664C129.62 142.664 129.956 142.586 130.242 142.43C130.534 142.268 130.763 142.073 130.93 141.844C131.096 141.609 131.185 141.388 131.195 141.18L131.805 142.016C131.742 142.229 131.635 142.458 131.484 142.703C131.333 142.948 131.135 143.182 130.891 143.406C130.651 143.625 130.362 143.805 130.023 143.945C129.69 144.086 129.305 144.156 128.867 144.156C128.315 144.156 127.823 144.047 127.391 143.828C126.958 143.604 126.62 143.305 126.375 142.93C126.13 142.549 126.008 142.12 126.008 141.641C126.008 141.193 126.091 140.797 126.258 140.453C126.43 140.104 126.68 139.812 127.008 139.578C127.341 139.344 127.747 139.167 128.227 139.047C128.706 138.922 129.253 138.859 129.867 138.859H131.344ZM141.336 144H139.445V135C139.445 134.318 139.581 133.742 139.852 133.273C140.128 132.805 140.521 132.448 141.031 132.203C141.547 131.958 142.159 131.836 142.867 131.836C143.284 131.836 143.685 131.88 144.07 131.969C144.461 132.057 144.865 132.169 145.281 132.305L144.992 133.836C144.727 133.747 144.432 133.664 144.109 133.586C143.786 133.503 143.414 133.461 142.992 133.461C142.424 133.461 142.005 133.591 141.734 133.852C141.469 134.107 141.336 134.49 141.336 135V144ZM143.031 135.547V136.922H138.148V135.547H143.031ZM146.172 135.547V144H144.289V135.547H146.172ZM150.289 132V144H148.398V132H150.289ZM156.078 144.156C155.453 144.156 154.888 144.055 154.383 143.852C153.883 143.643 153.456 143.354 153.102 142.984C152.753 142.615 152.484 142.18 152.297 141.68C152.109 141.18 152.016 140.641 152.016 140.062V139.75C152.016 139.089 152.112 138.49 152.305 137.953C152.497 137.417 152.766 136.958 153.109 136.578C153.453 136.193 153.859 135.898 154.328 135.695C154.797 135.492 155.305 135.391 155.852 135.391C156.456 135.391 156.984 135.492 157.438 135.695C157.891 135.898 158.266 136.185 158.562 136.555C158.865 136.919 159.089 137.354 159.234 137.859C159.385 138.365 159.461 138.922 159.461 139.531V140.336H152.93V138.984H157.602V138.836C157.591 138.497 157.523 138.18 157.398 137.883C157.279 137.586 157.094 137.346 156.844 137.164C156.594 136.982 156.26 136.891 155.844 136.891C155.531 136.891 155.253 136.958 155.008 137.094C154.768 137.224 154.568 137.414 154.406 137.664C154.245 137.914 154.12 138.216 154.031 138.57C153.948 138.919 153.906 139.312 153.906 139.75V140.062C153.906 140.432 153.956 140.776 154.055 141.094C154.159 141.406 154.31 141.68 154.508 141.914C154.706 142.148 154.945 142.333 155.227 142.469C155.508 142.599 155.828 142.664 156.188 142.664C156.641 142.664 157.044 142.573 157.398 142.391C157.753 142.208 158.06 141.951 158.32 141.617L159.312 142.578C159.13 142.844 158.893 143.099 158.602 143.344C158.31 143.583 157.953 143.779 157.531 143.93C157.115 144.081 156.63 144.156 156.078 144.156Z" fill="white"/>
<path fill-rule="evenodd" clip-rule="evenodd" d="M114 120C122.284 120 129 113.284 129 105C129 96.7157 122.284 90 114 90C105.716 90 99 96.7157 99 105C99 113.284 105.716 120 114 120V120Z" stroke="white" stroke-width="1.5" stroke-linecap="round" stroke-linejoin="round"/>
<path d="M127.915 99.4189L117.262 110.072" stroke="white" stroke-width="1.5" stroke-linecap="round" stroke-linejoin="round"/>
<path d="M100.126 110.686L107.824 102.988C108.475 102.337 109.53 102.337 110.181 102.988L123.667 116.474" stroke="white" stroke-width="1.5" stroke-linecap="round" stroke-linejoin="round"/>
<path d="M117.274 98.1915L117.275 98.1913C117.307 98.1625 117.357 98.1654 117.386 98.198C117.415 98.2305 117.412 98.2803 117.379 98.3092C117.347 98.3382 117.297 98.3352 117.268 98.3027C117.239 98.2702 117.242 98.2204 117.274 98.1915" stroke="white" stroke-width="1.5" stroke-linecap="round" stroke-linejoin="round"/>
</svg>
