<svg id="Layer_1" data-name="Layer 1" xmlns="http://www.w3.org/2000/svg" viewBox="0 0 224.47 259.2"><defs><style>.cls-1{fill:#12b4d4;}.cls-1,.cls-2,.cls-3{fill-rule:evenodd;}.cls-2{fill:#077de9;}.cls-3{fill:#1ce7e7;}</style></defs><title>Nexity-Network-icon</title><path class="cls-1" d="M420.93,168.24l16.63,9.6,16.63,9.6v38.4l-16.63,9.6L420.93,245l-16.63-9.6-16.63-9.6v-38.4l16.63-9.6,16.63-9.6ZM533.17,233v38.4L516.54,281l-16.63,9.6L483.28,281l-16.63-9.6V233l16.63-9.6,16.63-9.6,16.63,9.6,16.63,9.6Zm-49.88,81.6,16.63-9.6,16.63,9.6,16.63,9.6v38.4l-16.63,9.6-16.63,9.6-16.63-9.6-16.63-9.6v-38.4l16.63-9.6Zm-45.73,45.6,16.63,9.6v38.4l-16.63,9.6-16.63,9.6-16.63-9.6-16.63-9.6v-38.4l16.63-9.6,16.63-9.6,16.63,9.6Zm-95.61-146.4,16.63,9.6L375.2,233v38.4L358.58,281l-16.63,9.6L325.32,281l-16.63-9.6V233l16.63-9.6,16.63-9.6Zm16.63,100.8,16.63,9.6v38.4l-16.63,9.6-16.63,9.6-16.63-9.6-16.63-9.6v-38.4l16.63-9.6,16.63-9.6Z" transform="translate(-308.69 -168.24)"/><polygon class="cls-2" points="112.24 0 112.24 38.4 145.49 57.6 145.49 38.4 145.49 19.2 128.87 9.6 112.24 0"/><polygon class="cls-3" points="145.49 57.6 112.24 38.4 78.98 57.6 95.61 67.2 112.24 76.8 128.87 67.2 145.49 57.6"/><polygon class="cls-2" points="112.24 220.8 112.24 259.2 95.61 249.6 78.98 240 78.98 220.8 78.98 201.6 112.24 220.8"/><polygon class="cls-3" points="145.49 201.6 112.24 220.8 78.98 201.6 95.61 192 112.24 182.4 128.87 192 145.49 201.6"/><polygon class="cls-2" points="0 64.8 33.26 84 66.51 64.8 49.88 55.2 33.26 45.6 16.63 55.2 0 64.8"/><polygon class="cls-3" points="66.51 64.8 33.26 84 33.26 122.4 49.88 112.8 66.51 103.2 66.51 84 66.51 64.8"/><polygon class="cls-2" points="191.22 175.2 224.47 194.4 207.85 204 191.22 213.6 174.59 204 157.96 194.4 191.22 175.2"/><polygon class="cls-3" points="191.22 136.8 191.22 175.2 157.96 194.4 157.96 175.2 157.96 156 174.59 146.4 191.22 136.8"/><polygon class="cls-2" points="0 194.4 33.26 175.2 33.26 136.8 16.63 146.4 0 156 0 175.2 0 194.4"/><polygon class="cls-3" points="33.26 136.8 33.26 175.2 66.51 194.4 66.51 175.2 66.51 156 49.88 146.4 33.26 136.8"/><polygon class="cls-2" points="191.22 84 224.47 64.8 224.47 84 224.47 103.2 207.85 112.8 191.22 122.4 191.22 84"/><polygon class="cls-3" points="157.96 64.8 191.22 84 191.22 122.4 174.59 112.8 157.96 103.2 157.96 84 157.96 64.8"/><path class="cls-3" d="M420.93,261.36a36.48,36.48,0,1,0,36.48,36.48,36.48,36.48,0,0,0-36.48-36.48Zm0,16.32a20.16,20.16,0,1,1-20.16,20.16A20.16,20.16,0,0,1,420.93,277.68Z" transform="translate(-308.69 -168.24)"/></svg>