<svg id="Layer_1" data-name="Layer 1" xmlns="http://www.w3.org/2000/svg" viewBox="0 0 259.2 82.52"><defs><style>.cls-1{fill:#12b4d4;}.cls-1,.cls-2,.cls-3,.cls-4{fill-rule:evenodd;}.cls-2{fill:#077de9;}.cls-3{fill:#1ce7e7;}.cls-4,.cls-5{fill:#3b72b9;}</style></defs><title>Nexity-Network-main</title><path class="cls-1" d="M327.06,256.58l5.29,3.06,5.29,3.06v12.22L332.35,278,327.06,281,321.77,278l-5.29-3.06V262.69l5.29-3.06,5.29-3.06Zm35.73,20.63v12.22l-5.29,3.06-5.29,3.06-5.29-3.06-5.29-3.06V277.21l5.29-3.06,5.29-3.06,5.29,3.06,5.29,3.06Zm-15.88,26,5.29-3.06,5.29,3.06,5.29,3.06v12.22l-5.29,3.06-5.29,3.06-5.29-3.06-5.29-3.06V306.24l5.29-3.06ZM332.35,317.7l5.29,3.06V333L332.35,336l-5.29,3.06L321.77,336,316.47,333V320.76l5.29-3.06,5.29-3.06,5.29,3.06Zm-30.44-46.6,5.29,3.06,5.29,3.06v12.22l-5.29,3.06-5.29,3.06-5.29-3.06-5.29-3.06V277.21l5.29-3.06,5.29-3.06Zm5.29,32.09,5.29,3.06v12.22l-5.29,3.06-5.29,3.06-5.29-3.06-5.29-3.06V306.24l5.29-3.06,5.29-3.06Z" transform="translate(-291.33 -256.58)"/><polygon class="cls-2" points="35.73 0 35.73 12.22 46.32 18.34 46.32 12.22 46.32 6.11 41.02 3.06 35.73 0"/><polygon class="cls-3" points="46.32 18.34 35.73 12.22 25.14 18.34 30.44 21.39 35.73 24.45 41.02 21.39 46.32 18.34"/><polygon class="cls-2" points="35.73 70.29 35.73 82.51 30.44 79.46 25.14 76.4 25.14 70.29 25.14 64.18 35.73 70.29"/><polygon class="cls-3" points="46.32 64.18 35.73 70.29 25.14 64.18 30.44 61.12 35.73 58.06 41.02 61.12 46.32 64.18"/><polygon class="cls-2" points="0 20.63 10.59 26.74 21.17 20.63 15.88 17.57 10.59 14.52 5.29 17.57 0 20.63"/><polygon class="cls-3" points="21.17 20.63 10.59 26.74 10.59 38.97 15.88 35.91 21.17 32.85 21.17 26.74 21.17 20.63"/><polygon class="cls-2" points="60.87 55.77 71.46 61.88 66.17 64.94 60.87 68 55.58 64.94 50.29 61.88 60.87 55.77"/><polygon class="cls-3" points="60.87 43.55 60.87 55.77 50.29 61.88 50.29 55.77 50.29 49.66 55.58 46.6 60.87 43.55"/><polygon class="cls-2" points="0 61.88 10.59 55.77 10.59 43.55 5.29 46.6 0 49.66 0 55.77 0 61.88"/><polygon class="cls-3" points="10.59 43.55 10.59 55.77 21.17 61.88 21.17 55.77 21.17 49.66 15.88 46.6 10.59 43.55"/><polygon class="cls-2" points="60.87 26.74 71.46 20.63 71.46 26.74 71.46 32.85 66.17 35.91 60.87 38.97 60.87 26.74"/><polygon class="cls-3" points="50.29 20.63 60.87 26.74 60.87 38.97 55.58 35.91 50.29 32.85 50.29 26.74 50.29 20.63"/><path class="cls-3" d="M327.06,286.23a11.61,11.61,0,1,0,11.61,11.61,11.61,11.61,0,0,0-11.61-11.61Zm0,5.19a6.42,6.42,0,1,1-6.42,6.42A6.42,6.42,0,0,1,327.06,291.42Z" transform="translate(-291.33 -256.58)"/><path class="cls-3" d="M484.95,281.27c0,5.54,8.39,5.54,8.39,0S484.95,275.73,484.95,281.27Z" transform="translate(-291.33 -256.58)"/><path class="cls-4" d="M449.11,306.27c1.11-11.83-4.9-17.78-14.51-17.78-9.33,0-15.27,6.29-15.27,15,0,9.21,5.89,15.33,15.79,15.33,4.37,0,9.33-1.52,12.36-4.66l-4.55-4.49c-1.63,1.69-5.07,2.68-7.69,2.68-5,0-8.1-2.56-8.57-6.12Zm-22.32-5.89c1-3.73,4.2-5.59,8-5.59,4.08,0,7,1.86,7.46,5.59Z" transform="translate(-291.33 -256.58)"/><polygon class="cls-4" points="175.32 42.52 169.67 32.78 161.16 32.78 161.16 33.02 170.6 46.95 160.58 61.34 160.58 61.52 169.09 61.52 175.32 51.9 181.56 61.52 190.07 61.52 190.07 61.34 180.04 46.95 189.49 33.02 189.49 32.78 180.98 32.78 175.32 42.52"/><rect class="cls-5" x="194.26" y="32.67" width="7.11" height="28.85"/><path class="cls-4" d="M499.14,281.27V308c0,7.17,4.08,10.71,10.32,10.49a16.22,16.22,0,0,0,5.89-1.22l-2-6.06a8.12,8.12,0,0,1-3.44.87c-2.21,0-3.73-1.34-3.73-4.08V295.54h8.16v-6.12h-8.1v-8.16Z" transform="translate(-291.33 -256.58)"/><polygon class="cls-4" points="114.48 45.99 94.49 20.66 88.26 20.66 88.26 61.52 95.95 61.52 95.95 33.97 117.4 61.52 117.4 61.52 122.18 61.52 122.18 20.66 114.48 20.66 114.48 45.99"/><polygon class="cls-4" points="251.33 32.78 246.09 45.37 243.11 53.3 240.38 45.2 236 32.78 227.73 32.78 239.21 61.05 233.85 73.52 241.66 73.52 259.2 32.78 251.33 32.78"/><polygon class="cls-3" points="99.98 70.42 97.52 70.42 97.52 78.63 90.67 70.42 88.26 70.42 88.26 82.41 90.74 82.41 90.74 74.23 97.57 82.41 99.98 82.41 99.98 70.42"/><polygon class="cls-3" points="112.54 70.42 102.81 70.42 102.81 82.41 112.77 82.41 112.77 80.41 105.35 80.41 105.35 77.39 111.8 77.39 111.8 75.39 105.35 75.39 105.35 72.43 112.54 72.43 112.54 70.42"/><polygon class="cls-3" points="126.01 70.42 115.17 70.42 115.17 72.46 119.31 72.46 119.31 82.41 121.87 82.41 121.87 72.46 126.01 72.46 126.01 70.42"/><polygon class="cls-3" points="147.75 70.42 145.13 70.42 142.12 79.86 139.06 70.42 136.56 70.42 133.52 79.86 130.47 70.42 127.74 70.42 132.14 82.41 134.76 82.41 137.75 73.42 140.71 82.41 143.35 82.41 147.75 70.42"/><path class="cls-3" d="M446.7,326.94c-4,0-7.08,2.6-7.08,6.06s3.07,6.1,7.08,6.1,7.08-2.65,7.08-6.1-3.07-6.06-7.08-6.06Zm0,2.06a4,4,0,1,1,0,8,4.05,4.05,0,1,1,0-8Z" transform="translate(-291.33 -256.58)"/><path class="cls-3" d="M467,339l-2.92-4a3.89,3.89,0,0,0,2.64-3.89c0-2.64-2-4.13-5.39-4.13H455.8v12h2.54v-3.53h3a4.25,4.25,0,0,0,.47,0l2.3,3.55Zm-8.67-10h3c1.9,0,3,.72,3,2.19s-1.06,2.24-3,2.24h-3Z" transform="translate(-291.33 -256.58)"/><polygon class="cls-3" points="190.06 82.41 184.63 75.49 189.7 70.42 186.74 70.42 180.72 76.28 180.72 70.42 178.18 70.42 178.18 82.41 180.72 82.41 180.72 79.4 182.85 77.28 186.99 82.41 190.06 82.41"/></svg>