<svg width="25" height="25" viewBox="0 0 25 25" fill="none" xmlns="http://www.w3.org/2000/svg">
<path fill-rule="evenodd" clip-rule="evenodd" d="M18.8889 24.0077H6.11111C3.28832 24.0077 1 21.7193 1 18.8966V8.67433C1 7.26294 2.14416 6.11877 3.55556 6.11877H21.4444C22.8558 6.11877 24 7.26294 24 8.67433V18.8966C24 21.7193 21.7117 24.0077 18.8889 24.0077Z" stroke="#077DE9" stroke-width="1.5" stroke-linecap="round" stroke-linejoin="round"/>
<path d="M7.39122 6.11844V3.56288C7.39122 2.15149 8.53538 1.00732 9.94678 1.00732H15.0579C16.4693 1.00732 17.6134 2.15149 17.6134 3.56288V6.11844" stroke="#077DE9" stroke-width="1.5" stroke-linecap="round" stroke-linejoin="round"/>
<rect x="9.94571" y="11.2297" width="5.11111" height="3.83333" rx="0.5" stroke="#077DE9" stroke-width="1.5" stroke-linecap="round" stroke-linejoin="round"/>
<path d="M15.0547 13.1461H19.5269C21.9969 13.1461 23.9991 11.1438 23.9991 8.67389V8.67389" stroke="#077DE9" stroke-width="1.5" stroke-linecap="round" stroke-linejoin="round"/>
<path d="M9.94444 13.1461H5.47222C3.00228 13.1461 1 11.1438 1 8.67389V8.67389" stroke="#077DE9" stroke-width="1.5" stroke-linecap="round" stroke-linejoin="round"/>
</svg>
