<svg width="25" height="25" viewBox="0 0 25 25" fill="none" xmlns="http://www.w3.org/2000/svg">
<path d="M18.2516 9.9353L13.9425 12.8527C13.0697 13.4431 11.9247 13.4431 11.0532 12.8515L6.75054 9.9353" stroke="#077DE9" stroke-width="1.5" stroke-linecap="round" stroke-linejoin="round"/>
<path d="M7.38949 2.20801C3.60563 4.09035 1 7.98538 1 12.4989C1 18.8513 6.14865 24 12.5011 24L11.2232 21.4442" stroke="#077DE9" stroke-width="1.5" stroke-linecap="round" stroke-linejoin="round"/>
<path d="M13.779 3.5558L12.5011 1C18.8535 1 24.0022 6.14865 24.0022 12.5011C24.0022 17.0133 21.3965 20.9084 17.6127 22.792" stroke="#077DE9" stroke-width="1.5" stroke-linecap="round" stroke-linejoin="round"/>
<path fill-rule="evenodd" clip-rule="evenodd" d="M16.5265 16.814H8.4757C7.52239 16.814 6.75054 16.0421 6.75054 15.0888V9.91333C6.75054 8.96002 7.52239 8.18817 8.4757 8.18817H16.5265C17.4798 8.18817 18.2516 8.96002 18.2516 9.91333V15.0888C18.2516 16.0421 17.4798 16.814 16.5265 16.814V16.814Z" stroke="#077DE9" stroke-width="1.5" stroke-linecap="round" stroke-linejoin="round"/>
</svg>
