<svg width="23" height="26" viewBox="0 0 23 26" fill="none" xmlns="http://www.w3.org/2000/svg">
<path fill-rule="evenodd" clip-rule="evenodd" d="M1 17.4108V8.20759C1 7.27309 1.49744 6.40947 2.30463 5.93959L10.1796 1.35634C10.996 0.881219 12.004 0.881219 12.8204 1.35634L20.6954 5.93959C21.5026 6.40947 22 7.27309 22 8.20759V17.4122C22 18.3467 21.5026 19.2103 20.6954 19.6802L12.8204 24.2634C12.004 24.7385 10.996 24.7385 10.1796 24.2634L2.30463 19.6802C1.49744 19.209 1 18.3453 1 17.4108Z" stroke="#077DE9" stroke-width="1.5" stroke-linecap="round" stroke-linejoin="round"/>
<path d="M11.5 24.6199V12.8074" stroke="#077DE9" stroke-width="1.5" stroke-linecap="round" stroke-linejoin="round"/>
<path d="M11.5 12.809L21.6719 6.94214" stroke="#077DE9" stroke-width="1.5" stroke-linecap="round" stroke-linejoin="round"/>
<path d="M1.32812 6.94214L11.5 12.809" stroke="#077DE9" stroke-width="1.5" stroke-linecap="round" stroke-linejoin="round"/>
</svg>
