<svg width="25" height="25" viewBox="0 0 25 25" fill="none" xmlns="http://www.w3.org/2000/svg">
<path d="M20.6318 4.36827C25.1228 8.8593 25.1228 16.1407 20.6318 20.6317C16.1407 25.1227 8.85934 25.1227 4.36833 20.6317C-0.122697 16.1407 -0.122697 8.85928 4.36833 4.36827C8.85937 -0.122758 16.1408 -0.122758 20.6318 4.36827" stroke="#077DE9" stroke-width="1.5" stroke-linecap="round" stroke-linejoin="round"/>
<path d="M15.0422 7.80277C16.4459 9.20646 16.4459 11.4823 15.0422 12.886C13.6386 14.2897 11.3627 14.2897 9.95902 12.886C8.55533 11.4823 8.55533 9.20646 9.95902 7.80277C11.3627 6.39908 13.6386 6.39908 15.0422 7.80277" stroke="#077DE9" stroke-width="1.5" stroke-linecap="round" stroke-linejoin="round"/>
<path d="M19.7922 21.3908C17.9586 19.4601 15.3724 18.25 12.5 18.25C9.62751 18.25 7.04129 19.4601 5.20768 21.3921" stroke="#077DE9" stroke-width="1.5" stroke-linecap="round" stroke-linejoin="round"/>
</svg>
