<svg width="20" height="21" viewBox="0 0 20 21" fill="none" xmlns="http://www.w3.org/2000/svg">
<path d="M14 1V5" stroke="#077DE9" stroke-width="1.5" stroke-linecap="round" stroke-linejoin="round"/>
<path d="M6 1V5" stroke="#077DE9" stroke-width="1.5" stroke-linecap="round" stroke-linejoin="round"/>
<path d="M1 8H19" stroke="#077DE9" stroke-width="1.5" stroke-linecap="round" stroke-linejoin="round"/>
<path fill-rule="evenodd" clip-rule="evenodd" d="M17 3H3C1.895 3 1 3.895 1 5V18C1 19.105 1.895 20 3 20H17C18.105 20 19 19.105 19 18V5C19 3.895 18.105 3 17 3Z" stroke="#077DE9" stroke-width="1.5" stroke-linecap="round" stroke-linejoin="round"/>
<path d="M5.01268 11.729C4.87468 11.729 4.76268 11.841 4.76368 11.979C4.76368 12.117 4.87568 12.229 5.01368 12.229C5.15168 12.229 5.26368 12.117 5.26368 11.979C5.26368 11.841 5.15168 11.729 5.01268 11.729" stroke="#077DE9" stroke-width="1.5" stroke-linecap="round" stroke-linejoin="round"/>
<path d="M10.0127 11.729C9.87468 11.729 9.76268 11.841 9.76368 11.979C9.76368 12.117 9.87568 12.229 10.0137 12.229C10.1517 12.229 10.2637 12.117 10.2637 11.979C10.2637 11.841 10.1517 11.729 10.0127 11.729" stroke="#077DE9" stroke-width="1.5" stroke-linecap="round" stroke-linejoin="round"/>
<path d="M15.0127 11.729C14.8747 11.729 14.7627 11.841 14.7637 11.979C14.7637 12.117 14.8757 12.229 15.0137 12.229C15.1517 12.229 15.2637 12.117 15.2637 11.979C15.2637 11.841 15.1517 11.729 15.0127 11.729" stroke="#077DE9" stroke-width="1.5" stroke-linecap="round" stroke-linejoin="round"/>
<path d="M5.01268 15.729C4.87468 15.729 4.76268 15.841 4.76368 15.979C4.76368 16.117 4.87568 16.229 5.01368 16.229C5.15168 16.229 5.26368 16.117 5.26368 15.979C5.26368 15.841 5.15168 15.729 5.01268 15.729" stroke="#077DE9" stroke-width="1.5" stroke-linecap="round" stroke-linejoin="round"/>
<path d="M10.0127 15.729C9.87468 15.729 9.76268 15.841 9.76368 15.979C9.76368 16.117 9.87568 16.229 10.0137 16.229C10.1517 16.229 10.2637 16.117 10.2637 15.979C10.2637 15.841 10.1517 15.729 10.0127 15.729" stroke="#077DE9" stroke-width="1.5" stroke-linecap="round" stroke-linejoin="round"/>
</svg>
