<svg width="47" height="47" viewBox="0 0 47 47" fill="none" xmlns="http://www.w3.org/2000/svg">
<path d="M37.8342 11.5553V6.7774C37.8342 4.13762 35.6961 1.99951 33.0563 1.99951H6.77789C4.13811 1.99951 2 4.13762 2 6.7774V33.0558C2 35.6956 4.13811 37.8337 6.77789 37.8337H11.5558" stroke="white" stroke-width="3" stroke-linecap="round" stroke-linejoin="round"/>
<path fill-rule="evenodd" clip-rule="evenodd" d="M41.2837 44.9999H15.2729C13.2184 44.9999 11.5557 43.3372 11.5557 41.2827V15.2719C11.5557 13.2174 13.2184 11.5547 15.2729 11.5547H41.2861C43.3382 11.5547 45.0009 13.2174 45.0009 15.2719V41.2851C45.0009 43.3372 43.3382 44.9999 41.2837 44.9999Z" stroke="white" stroke-width="3" stroke-linecap="round" stroke-linejoin="round"/>
<path d="M37.5691 20.8458H26.4199" stroke="white" stroke-width="3" stroke-linecap="round" stroke-linejoin="round"/>
<path d="M26.4199 28.2777H37.5691" stroke="white" stroke-width="3" stroke-linecap="round" stroke-linejoin="round"/>
<path d="M26.4199 35.7101H37.5691" stroke="white" stroke-width="3" stroke-linecap="round" stroke-linejoin="round"/>
<path d="M18.9851 27.8143C18.7294 27.8143 18.5216 28.0221 18.524 28.2777C18.524 28.5333 18.7318 28.7412 18.9874 28.7412C19.2431 28.7412 19.4509 28.5333 19.4509 28.2777C19.4509 28.0221 19.2431 27.8143 18.9851 27.8143" stroke="white" stroke-width="3" stroke-linecap="round" stroke-linejoin="round"/>
<path d="M18.9851 35.2466C18.7294 35.2466 18.5216 35.4545 18.524 35.7101C18.524 35.9657 18.7318 36.1736 18.9874 36.1736C19.2431 36.1736 19.4509 35.9657 19.4509 35.7101C19.4509 35.4545 19.2431 35.2466 18.9851 35.2466" stroke="white" stroke-width="3" stroke-linecap="round" stroke-linejoin="round"/>
<path d="M18.9851 20.3802C18.7294 20.3802 18.5216 20.588 18.524 20.8436C18.524 21.0993 18.7318 21.3071 18.9874 21.3071C19.2431 21.3071 19.4509 21.0993 19.4509 20.8436C19.4533 20.5904 19.2431 20.3802 18.9851 20.3802" stroke="white" stroke-width="3" stroke-linecap="round" stroke-linejoin="round"/>
</svg>
