<svg width="10" height="10" viewBox="0 0 10 10" fill="none" xmlns="http://www.w3.org/2000/svg">
<path d="M5.1882 1.72308C5.73368 2.26856 5.73368 3.15297 5.1882 3.69845C4.64271 4.24393 3.75831 4.24393 3.21282 3.69845C2.66734 3.15297 2.66734 2.26856 3.21282 1.72308C3.75831 1.17759 4.64271 1.17759 5.1882 1.72308" stroke="#077DE9" stroke-width="0.9" stroke-linecap="round" stroke-linejoin="round"/>
<path d="M5.9452 5.63255C5.4256 5.42495 4.816 5.31055 4.2 5.31055C2.5808 5.31055 1 6.09735 1 7.30735V7.70735C1 7.92815 1.1792 8.10735 1.4 8.10735H5.1652" stroke="#077DE9" stroke-width="0.9" stroke-linecap="round" stroke-linejoin="round"/>
<path d="M7 9.31397C5.8956 9.31397 5 8.41877 5 7.31397C5 6.23237 5.92 5.31277 7.0016 5.31397C8.1056 5.31477 9 6.20997 9 7.31397C9 8.41837 8.1048 9.31397 7 9.31397" stroke="#077DE9" stroke-width="0.9" stroke-linecap="round" stroke-linejoin="round"/>
<path d="M6.99932 6.51416V8.11416" stroke="#077DE9" stroke-width="0.9" stroke-linecap="round" stroke-linejoin="round"/>
<path d="M7.80068 7.31377H6.20068" stroke="#077DE9" stroke-width="0.9" stroke-linecap="round" stroke-linejoin="round"/>
</svg>
