<svg width="23" height="27" viewBox="0 0 23 27" fill="none" xmlns="http://www.w3.org/2000/svg">
<path d="M13.6317 26H8.92578" stroke="#070707" stroke-width="2" stroke-miterlimit="10" stroke-linecap="round" stroke-linejoin="round"/>
<path d="M11.2793 3.94116C7.22053 3.94116 3.92643 7.23528 3.92643 11.2941V11.3383V14.9706C3.92643 15.4412 3.66173 15.8824 3.23526 16.0882L2.49997 16.4559C1.57351 16.9118 1 17.8675 1 18.8969C1 20.3969 2.22054 21.6177 3.72053 21.6177H18.8528C20.3528 21.6177 21.5734 20.3969 21.5734 18.8969C21.5734 17.8675 20.9851 16.9265 20.0587 16.4559L19.3234 16.0882C18.8969 15.8676 18.6322 15.4412 18.6322 14.9706V11.3383V11.2941" stroke="#070707" stroke-width="2" stroke-miterlimit="10" stroke-linecap="round" stroke-linejoin="round"/>
<path d="M12.9559 4.14724C12.4118 4.01489 11.8529 3.94116 11.2793 3.94116" stroke="#070707" stroke-width="2" stroke-miterlimit="10" stroke-linecap="round" stroke-linejoin="round"/>
<path d="M18.4258 9.61792C18.5588 10.162 18.6327 10.7207 18.6327 11.2942" stroke="#070707" stroke-width="2" stroke-miterlimit="10" stroke-linecap="round" stroke-linejoin="round"/>
<path d="M17.1613 9.82353C19.5978 9.82353 21.573 7.84831 21.573 5.41176C21.573 2.97521 19.5978 1 17.1613 1C14.7247 1 12.7495 2.97521 12.7495 5.41176C12.7495 7.84831 14.7247 9.82353 17.1613 9.82353Z" stroke="#077DE9" stroke-width="2" stroke-miterlimit="10" stroke-linecap="round" stroke-linejoin="round"/>
</svg>
