<svg width="33" height="33" viewBox="0 0 33 33" fill="none" xmlns="http://www.w3.org/2000/svg">
<path d="M2 4.61072H18.443" stroke="#077DE9" stroke-width="2.5" stroke-linecap="round" stroke-linejoin="round"/>
<path d="M15.1544 16.121H31.5974" stroke="#077DE9" stroke-width="2.5" stroke-linecap="round" stroke-linejoin="round"/>
<path d="M2 27.6312H18.443" stroke="#077DE9" stroke-width="2.5" stroke-linecap="round" stroke-linejoin="round"/>
<path d="M30.6335 2.28541C31.9177 3.56961 31.9177 5.6513 30.6335 6.9355C29.3493 8.2197 27.2676 8.2197 25.9834 6.9355C24.6992 5.6513 24.6992 3.56961 25.9834 2.28541C27.2676 1.00122 29.3493 1.00122 30.6335 2.28541" stroke="#077DE9" stroke-width="2.5" stroke-linecap="round" stroke-linejoin="round"/>
<path d="M7.61323 13.7957C8.89743 15.0799 8.89743 17.1616 7.61323 18.4458C6.32903 19.7299 4.24735 19.7299 2.96315 18.4458C1.67895 17.1616 1.67895 15.0799 2.96315 13.7957C4.24735 12.5115 6.32903 12.5115 7.61323 13.7957" stroke="#077DE9" stroke-width="2.5" stroke-linecap="round" stroke-linejoin="round"/>
<path d="M30.6335 25.3054C31.9177 26.5896 31.9177 28.6713 30.6335 29.9555C29.3493 31.2397 27.2676 31.2397 25.9834 29.9555C24.6992 28.6713 24.6992 26.5896 25.9834 25.3054C27.2676 24.0212 29.3493 24.0212 30.6335 25.3054" stroke="#077DE9" stroke-width="2.5" stroke-linecap="round" stroke-linejoin="round"/>
</svg>
