<svg width="26" height="34" viewBox="0 0 26 34" fill="none" xmlns="http://www.w3.org/2000/svg">
<path fill-rule="evenodd" clip-rule="evenodd" d="M23.7407 7.60029L19.0353 2.89494C18.4114 2.27099 17.5645 1.91992 16.6827 1.91992H4.74957C2.91102 1.91992 1.42188 3.40906 1.42188 5.24761V28.5415C1.42188 30.38 2.91102 31.8691 4.74957 31.8691H21.388C23.2266 31.8691 24.7157 30.38 24.7157 28.5415V9.95297C24.7157 9.07113 24.3646 8.22423 23.7407 7.60029V7.60029Z" stroke="#077DE9" stroke-width="2.5" stroke-linecap="round" stroke-linejoin="round"/>
<path d="M6.41309 17.278H19.7239" stroke="#077DE9" stroke-width="2.5" stroke-linecap="round" stroke-linejoin="round"/>
<path d="M6.41309 22.2694H19.7239" stroke="#077DE9" stroke-width="2.5" stroke-linecap="round" stroke-linejoin="round"/>
<path d="M6.41309 26.8776H14.7323" stroke="#077DE9" stroke-width="2.5" stroke-linecap="round" stroke-linejoin="round"/>
<path fill-rule="evenodd" clip-rule="evenodd" d="M6.41309 10.6567V8.1576C6.41309 7.46877 6.97047 6.91138 7.65931 6.91138H10.1584C10.8472 6.91138 11.4046 7.46877 11.4046 8.1576V10.6567C11.4046 11.3455 10.8472 11.9029 10.1584 11.9029H7.65931C6.97047 11.9029 6.41309 11.3455 6.41309 10.6567Z" stroke="#077DE9" stroke-width="2.5" stroke-linecap="round" stroke-linejoin="round"/>
</svg>
