<svg width="32" height="25" viewBox="0 0 32 25" fill="none" xmlns="http://www.w3.org/2000/svg">
<path d="M18.2697 10.8791C19.7025 12.3118 19.7025 14.6347 18.2697 16.0674C16.837 17.5001 14.5141 17.5001 13.0814 16.0674C11.6487 14.6347 11.6487 12.3118 13.0814 10.8791C14.5141 9.44632 16.837 9.44632 18.2697 10.8791" stroke="#077DE9" stroke-width="1.5" stroke-linecap="round" stroke-linejoin="round"/>
<path d="M26.3195 2.07455C27.7523 3.50727 27.7523 5.83018 26.3195 7.2629C24.8868 8.69563 22.5639 8.69563 21.1312 7.2629C19.6985 5.83018 19.6985 3.50727 21.1312 2.07455C22.5639 0.641818 24.8868 0.641818 26.3195 2.07455" stroke="#077DE9" stroke-width="1.5" stroke-linecap="round" stroke-linejoin="round"/>
<path d="M24.4805 12.7393C26.7301 12.7393 28.8829 13.5215 30.3504 14.6955" stroke="#077DE9" stroke-width="1.5" stroke-linecap="round" stroke-linejoin="round"/>
<path d="M10.218 2.07455C11.6507 3.50727 11.6507 5.83018 10.218 7.2629C8.78525 8.69563 6.46235 8.69563 5.02962 7.2629C3.5969 5.83018 3.5969 3.50727 5.02962 2.07455C6.46235 0.641818 8.78526 0.641818 10.218 2.07455" stroke="#077DE9" stroke-width="1.5" stroke-linecap="round" stroke-linejoin="round"/>
<path d="M1 14.6955C2.46749 13.5215 4.6203 12.7393 6.86996 12.7393" stroke="#077DE9" stroke-width="1.5" stroke-linecap="round" stroke-linejoin="round"/>
<path d="M22.412 23.7469C20.7024 22.4247 18.2458 21.5457 15.6748 21.5457C13.1037 21.5457 10.6471 22.4247 8.9375 23.7469" stroke="#077DE9" stroke-width="1.5" stroke-linecap="round" stroke-linejoin="round"/>
</svg>
