<svg width="24" height="25" viewBox="0 0 24 25" fill="none" xmlns="http://www.w3.org/2000/svg">
<path d="M10.6901 7.05635H2.21126C1.5424 7.05611 1.00024 6.51395 1 5.84509V3.42256C1.00024 2.7537 1.5424 2.21154 2.21126 2.2113H10.6901" stroke="#077DE9" stroke-width="1.5" stroke-linecap="round" stroke-linejoin="round"/>
<path fill-rule="evenodd" clip-rule="evenodd" d="M3.72534 16.1401H1.90845C1.4068 16.1399 1.00018 15.7333 1 15.2316V13.4147C1.00018 12.9131 1.4068 12.5065 1.90845 12.5063H3.72534C4.22698 12.5065 4.6336 12.9131 4.63378 13.4147V15.2316C4.6336 15.7333 4.22698 16.1399 3.72534 16.1401Z" stroke="#077DE9" stroke-width="1.5" stroke-linecap="round" stroke-linejoin="round"/>
<path d="M8.53809 14.3232H22.8043" stroke="#077DE9" stroke-width="1.5" stroke-linecap="round" stroke-linejoin="round"/>
<path fill-rule="evenodd" clip-rule="evenodd" d="M3.72534 24.0125H1.90845C1.4068 24.0123 1.00018 23.6057 1 23.1041V21.2872C1.00018 20.7855 1.4068 20.3789 1.90845 20.3787H3.72534C4.22698 20.3789 4.6336 20.7855 4.63378 21.2872V23.1041C4.6336 23.6057 4.22698 24.0123 3.72534 24.0125Z" stroke="#077DE9" stroke-width="1.5" stroke-linecap="round" stroke-linejoin="round"/>
<path d="M8.53809 22.1957H22.8043" stroke="#077DE9" stroke-width="1.5" stroke-linecap="round" stroke-linejoin="round"/>
<circle cx="17.956" cy="4.63378" r="3.63378" stroke="#077DE9" stroke-width="1.5" stroke-linecap="round" stroke-linejoin="round"/>
<path d="M22.8026 9.48055L20.5264 7.20435" stroke="#077DE9" stroke-width="1.5" stroke-linecap="round" stroke-linejoin="round"/>
</svg>
