<svg width="26" height="34" viewBox="0 0 26 34" fill="none" xmlns="http://www.w3.org/2000/svg">
<path fill-rule="evenodd" clip-rule="evenodd" d="M23.7407 7.60029L19.0353 2.89494C18.4114 2.27099 17.5645 1.91992 16.6827 1.91992H4.74957C2.91102 1.91992 1.42188 3.40906 1.42188 5.24761V28.5415C1.42188 30.38 2.91102 31.8691 4.74957 31.8691H21.388C23.2266 31.8691 24.7157 30.38 24.7157 28.5415V9.95297C24.7157 9.07113 24.3646 8.22423 23.7407 7.60029V7.60029Z" stroke="#077DE9" stroke-width="2.5" stroke-linecap="round" stroke-linejoin="round"/>
<path d="M6.41345 17.278H19.7242" stroke="#077DE9" stroke-width="2.5" stroke-linecap="round" stroke-linejoin="round"/>
<path d="M6.41345 22.2694H19.7242" stroke="#077DE9" stroke-width="2.5" stroke-linecap="round" stroke-linejoin="round"/>
<path d="M6.41345 26.8776H14.7327" stroke="#077DE9" stroke-width="2.5" stroke-linecap="round" stroke-linejoin="round"/>
<path fill-rule="evenodd" clip-rule="evenodd" d="M6.41345 10.6567V8.1576C6.41345 7.46877 6.97084 6.91138 7.65967 6.91138H10.1588C10.8476 6.91138 11.405 7.46877 11.405 8.1576V10.6567C11.405 11.3455 10.8476 11.9029 10.1588 11.9029H7.65967C6.97084 11.9029 6.41345 11.3455 6.41345 10.6567Z" stroke="#077DE9" stroke-width="2.5" stroke-linecap="round" stroke-linejoin="round"/>
</svg>
