<svg width="23" height="25" viewBox="0 0 23 25" fill="none" xmlns="http://www.w3.org/2000/svg">
<path d="M7.94557 23.9406H18.7786C20.5383 23.9406 21.9648 22.5141 21.9648 20.7544V7.84607C21.9648 6.83203 21.562 5.85953 20.845 5.1425L17.8223 2.11986C17.1053 1.40283 16.1328 1 15.1187 1H6.03385C4.27416 1 2.84766 2.42651 2.84766 4.18619V13.7448" stroke="#077DE9" stroke-width="1.5" stroke-linecap="round" stroke-linejoin="round"/>
<path d="M21.9332 7.37189H17.5025C16.4467 7.37189 15.5908 6.51598 15.5908 5.46017V1.0296" stroke="#077DE9" stroke-width="1.5" stroke-linecap="round" stroke-linejoin="round"/>
<path fill-rule="evenodd" clip-rule="evenodd" d="M9.59106 15.4448L13.4674 11.5684C13.7064 11.3294 14.0306 11.1951 14.3686 11.1951C14.7066 11.1951 15.0308 11.3294 15.2698 11.5684L16.4914 12.79C16.9891 13.2877 16.9891 14.0947 16.4914 14.5924L12.615 18.4687C12.376 18.7077 12.0518 18.842 11.7138 18.842H9.85501C9.50307 18.842 9.21777 18.5567 9.21777 18.2048V16.346C9.21777 16.0079 9.35205 15.6838 9.59106 15.4448Z" stroke="#077DE9" stroke-width="1.5" stroke-linecap="round" stroke-linejoin="round"/>
<path d="M5.52323 18.8431C5.52319 18.8783 5.49465 18.9068 5.45948 18.9068C5.42431 18.9068 5.39579 18.8782 5.39578 18.8431C5.39577 18.8079 5.42425 18.7794 5.45943 18.7793C5.47635 18.7793 5.49259 18.786 5.50456 18.798C5.51653 18.81 5.52325 18.8262 5.52323 18.8431" stroke="#077DE9" stroke-width="1.5" stroke-linecap="round" stroke-linejoin="round"/>
<path d="M1.70096 18.8431C1.70092 18.8783 1.67239 18.9068 1.63721 18.9068C1.60204 18.9068 1.57353 18.8782 1.57351 18.8431C1.5735 18.8079 1.60199 18.7794 1.63716 18.7793C1.65409 18.7793 1.67033 18.786 1.6823 18.798C1.69427 18.81 1.70098 18.8262 1.70096 18.8431" stroke="#077DE9" stroke-width="1.5" stroke-linecap="round" stroke-linejoin="round"/>
</svg>
