<svg width="37" height="35" viewBox="0 0 37 35" fill="none" xmlns="http://www.w3.org/2000/svg">
<path d="M30.0499 15.2H31.6999C33.5224 15.2 34.9999 16.6774 34.9999 18.5V30.05C34.9999 31.8725 33.5224 33.35 31.6999 33.35H15.1999C13.3774 33.35 11.8999 31.8725 11.8999 30.05V26.75" stroke="#077DE9" stroke-width="2.5" stroke-linecap="round" stroke-linejoin="round"/>
<path d="M25.1002 8.6001H26.7502C28.5727 8.6001 30.0502 10.0776 30.0502 11.9001V23.4501C30.0502 25.2726 28.5727 26.7501 26.7502 26.7501H10.2502C8.42766 26.7501 6.9502 25.2726 6.9502 23.4501V20.1501" stroke="#077DE9" stroke-width="2.5" stroke-linecap="round" stroke-linejoin="round"/>
<rect x="2" y="2" width="23.1" height="18.15" rx="2" stroke="#077DE9" stroke-width="2.5" stroke-linecap="round" stroke-linejoin="round"/>
<path d="M25.1 8.5999H2" stroke="#077DE9" stroke-width="2.5" stroke-linecap="round" stroke-linejoin="round"/>
<path d="M10.2502 13.5501H6.9502" stroke="#077DE9" stroke-width="2.5" stroke-linecap="round" stroke-linejoin="round"/>
</svg>
