<svg width="32" height="33" viewBox="0 0 32 33" fill="none" xmlns="http://www.w3.org/2000/svg">
<path d="M14.3877 10.4702V7.8403C14.3877 6.67916 15.3295 5.7373 16.4907 5.7373H24.9043C26.067 5.7373 27.0088 6.67916 27.0088 7.8403V16.2539C27.0088 17.4166 26.067 18.3584 24.9058 18.3584H22.2759" stroke="#077DE9" stroke-width="2.5" stroke-linecap="round" stroke-linejoin="round"/>
<path fill-rule="evenodd" clip-rule="evenodd" d="M4.9209 25.7217V17.3082C4.9209 16.1455 5.86275 15.2036 7.02389 15.2036H15.4375C16.6002 15.2036 17.542 16.1455 17.542 17.3066V25.7202C17.542 26.8829 16.6002 27.8247 15.439 27.8247H7.02389C5.86275 27.8247 4.9209 26.8829 4.9209 25.7217V25.7217Z" stroke="#077DE9" stroke-width="2.5" stroke-linecap="round" stroke-linejoin="round"/>
<path d="M1.40234 12.8962C2.79067 7.69316 6.87676 3.60707 12.0798 2.21875" stroke="#077DE9" stroke-width="2.5" stroke-linecap="round" stroke-linejoin="round"/>
<path d="M21.0078 30.9836C25.2801 29.4674 28.6452 26.1023 30.1613 21.8301" stroke="#077DE9" stroke-width="2.5" stroke-linecap="round" stroke-linejoin="round"/>
</svg>
