<svg width="33" height="34" viewBox="0 0 33 34" fill="none" xmlns="http://www.w3.org/2000/svg">
<path fill-rule="evenodd" clip-rule="evenodd" d="M23.7179 32.3439H4.20951C2.66937 32.3439 1.42188 31.0964 1.42188 29.5563V10.0479C1.42188 8.50775 2.66937 7.26025 4.20951 7.26025H23.7196C25.258 7.26025 26.5055 8.50775 26.5055 10.0479V29.558C26.5055 31.0964 25.258 32.3439 23.7179 32.3439Z" stroke="#077DE9" stroke-width="2.5" stroke-linecap="round" stroke-linejoin="round"/>
<path d="M16.9213 14.2252C18.5534 15.8573 18.5534 18.5045 16.9213 20.1383C15.2892 21.7704 12.6421 21.7704 11.0083 20.1383C9.3745 18.5061 9.37617 15.859 11.0083 14.2252C12.6404 12.5914 15.2876 12.5931 16.9213 14.2252" stroke="#077DE9" stroke-width="2.5" stroke-linecap="round" stroke-linejoin="round"/>
<path d="M21.49 28.0513C21.2709 27.5012 20.9315 27.0062 20.4967 26.6032V26.6032C19.7626 25.9209 18.801 25.543 17.7977 25.543C16.1255 25.543 11.8044 25.543 10.1321 25.543C9.12879 25.543 8.16892 25.9226 7.43313 26.6032V26.6032C6.99835 27.0062 6.65888 27.5012 6.43982 28.0513" stroke="#077DE9" stroke-width="2.5" stroke-linecap="round" stroke-linejoin="round"/>
<path d="M6.43982 7.25892V5.02982C6.43982 3.48968 7.68731 2.24219 9.22745 2.24219H28.7375C30.276 2.24219 31.5235 3.48968 31.5235 5.02982V24.5399C31.5235 26.0783 30.276 27.3258 28.7358 27.3258H26.5067" stroke="#077DE9" stroke-width="2.5" stroke-linecap="round" stroke-linejoin="round"/>
</svg>
