<svg width="34" height="34" viewBox="0 0 34 34" fill="none" xmlns="http://www.w3.org/2000/svg">
<path d="M20.3114 13.686C22.1421 15.5166 22.1421 18.4847 20.3114 20.3153C18.4808 22.146 15.5127 22.146 13.6821 20.3153C11.8514 18.4847 11.8514 15.5166 13.6821 13.686C15.5127 11.8553 18.4808 11.8553 20.3114 13.686" stroke="#077DE9" stroke-width="2.5" stroke-linecap="round" stroke-linejoin="round"/>
<path fill-rule="evenodd" clip-rule="evenodd" d="M22.3393 2.22538L23.4324 2.58915C24.4337 2.92291 25.1106 3.86044 25.1106 4.91611V6.48554C25.1106 7.82059 26.1757 8.91001 27.5107 8.93813L29.082 8.97189C29.9914 8.99064 30.8165 9.51378 31.2233 10.3276L31.739 11.3589C32.2115 12.3039 32.0259 13.4439 31.2796 14.1902L30.1696 15.3002C29.2264 16.2434 29.2095 17.7678 30.1321 18.7316L31.2196 19.8679C31.8496 20.5261 32.0634 21.4767 31.7746 22.3411L31.4109 23.4343C31.0771 24.4356 30.1396 25.1125 29.0839 25.1125H27.5145C26.1794 25.1125 25.09 26.1775 25.0619 27.5126L25.0281 29.0839C25.0094 29.9933 24.4862 30.8183 23.6724 31.2252L22.6411 31.7409C21.6961 32.2134 20.5561 32.0278 19.8098 31.2815L18.6998 30.1714C17.7566 29.2283 16.2322 29.2114 15.2684 30.1339L14.1321 31.2215C13.4739 31.8515 12.5233 32.0653 11.6589 31.7765L10.5657 31.4127C9.56441 31.079 8.88751 30.1414 8.88751 29.0858V27.5163C8.88751 26.1813 7.82247 25.0919 6.48742 25.0637L4.91611 25.03C4.0067 25.0112 3.18167 24.4881 2.77478 23.6743L2.25913 22.643C1.78662 21.698 1.97225 20.5579 2.71853 19.8117L3.82857 18.7016C4.77173 17.7585 4.7886 16.234 3.86607 15.2702L2.77853 14.134C2.14663 13.4739 1.93287 12.5214 2.22163 11.6589L2.5854 10.5657C2.91916 9.56441 3.85669 8.88751 4.91236 8.88751H6.48179C7.81684 8.88751 8.90626 7.82247 8.93438 6.48742L8.96814 4.91611C8.99064 4.0067 9.51191 3.18167 10.3257 2.77478L11.357 2.25913C12.302 1.78662 13.4421 1.97225 14.1883 2.71853L15.2984 3.82857C16.2415 4.77173 17.766 4.7886 18.7298 3.86607L19.866 2.77853C20.5242 2.15038 21.4767 1.93662 22.3393 2.22538V2.22538Z" stroke="#077DE9" stroke-width="2.5" stroke-linecap="round" stroke-linejoin="round"/>
</svg>
