<svg width="38" height="34" viewBox="0 0 38 34" fill="none" xmlns="http://www.w3.org/2000/svg">
<path fill-rule="evenodd" clip-rule="evenodd" d="M28.4507 28.4506V17.1146C28.451 16.1124 28.053 15.1511 27.3443 14.4424C26.6356 13.7337 25.6743 13.3357 24.6721 13.3359H5.77868C4.77643 13.3357 3.81514 13.7337 3.10644 14.4424C2.39775 15.1511 1.99972 16.1124 2 17.1146V28.4506C1.99972 29.4529 2.39775 30.4142 3.10644 31.1229C3.81514 31.8316 4.77643 32.2296 5.77868 32.2293H24.6721C26.7589 32.2293 28.4507 30.5375 28.4507 28.4506Z" stroke="#077DE9" stroke-width="2.5" stroke-linecap="round" stroke-linejoin="round"/>
<path d="M2 21.0404H28.4507" stroke="#077DE9" stroke-width="2.5" stroke-linecap="round" stroke-linejoin="round"/>
<path d="M8.04492 13.335L10.331 4.79515C10.5904 3.82731 11.2243 3.00248 12.0927 2.50268C12.9611 2.00289 13.9928 1.86922 14.9599 2.13118L33.2109 7.02457C34.1787 7.28395 35.0036 7.9178 35.5034 8.78624C36.0032 9.65468 36.1368 10.6863 35.8749 11.6534L32.9464 22.5927C32.4253 24.5615 30.4327 25.7587 28.4498 25.2945" stroke="#077DE9" stroke-width="2.5" stroke-linecap="round" stroke-linejoin="round"/>
</svg>
