<svg width="32" height="33" viewBox="0 0 32 33" fill="none" xmlns="http://www.w3.org/2000/svg">
<path fill-rule="evenodd" clip-rule="evenodd" d="M27.4135 24.7597H25.7878C24.8904 24.7597 24.1621 24.0314 24.1621 23.134V15.0056C24.1621 14.1082 24.8904 13.3799 25.7878 13.3799H27.4135C29.2099 13.3799 30.6649 14.8349 30.6649 16.6313V21.5083C30.6649 23.3047 29.2099 24.7597 27.4135 24.7597Z" stroke="#077DE9" stroke-width="2.5" stroke-linecap="round" stroke-linejoin="round"/>
<path fill-rule="evenodd" clip-rule="evenodd" d="M6.27941 24.7597H4.65372C2.85734 24.7597 1.40234 23.3047 1.40234 21.5083V16.6313C1.40234 14.8349 2.85734 13.3799 4.65372 13.3799H6.27941C7.17679 13.3799 7.9051 14.1082 7.9051 15.0056V23.134C7.9051 24.0314 7.17679 24.7597 6.27941 24.7597Z" stroke="#077DE9" stroke-width="2.5" stroke-linecap="round" stroke-linejoin="round"/>
<path d="M26.6008 13.3798V12.567C26.6008 6.73076 21.87 2 16.0338 2V2C10.1976 2 5.4668 6.73076 5.4668 12.567V13.3798" stroke="#077DE9" stroke-width="2.5" stroke-linecap="round" stroke-linejoin="round"/>
<path fill-rule="evenodd" clip-rule="evenodd" d="M17.0496 31.6687H15.0175C13.8957 31.6687 12.9854 30.7583 12.9854 29.6366V29.6366C12.9854 28.5149 13.8957 27.6045 15.0175 27.6045H17.0496C18.1713 27.6045 19.0817 28.5149 19.0817 29.6366V29.6366C19.0817 30.7583 18.1713 31.6687 17.0496 31.6687Z" stroke="#077DE9" stroke-width="2.5" stroke-linecap="round" stroke-linejoin="round"/>
<path d="M19.0815 29.6368H22.5361C24.3325 29.6368 25.7875 28.1818 25.7875 26.3855V24.7598" stroke="#077DE9" stroke-width="2.5" stroke-linecap="round" stroke-linejoin="round"/>
</svg>
