<svg width="47" height="47" viewBox="0 0 47 47" fill="none" xmlns="http://www.w3.org/2000/svg">
<path d="M34.1583 8.10523H24.6846" stroke="white" stroke-width="2" stroke-linecap="round" stroke-linejoin="round"/>
<path fill-rule="evenodd" clip-rule="evenodd" d="M43.6319 12.8421H36.5266C35.2193 12.8421 34.1582 11.781 34.1582 10.4737V5.73683C34.1582 4.42946 35.2193 3.36841 36.5266 3.36841H43.6319C44.9393 3.36841 46.0003 4.42946 46.0003 5.73683V10.4737C46.0003 11.781 44.9393 12.8421 43.6319 12.8421Z" stroke="white" stroke-width="2" stroke-linecap="round" stroke-linejoin="round"/>
<path d="M34.1583 24.6842H24.6846" stroke="white" stroke-width="2" stroke-linecap="round" stroke-linejoin="round"/>
<path fill-rule="evenodd" clip-rule="evenodd" d="M43.6319 29.4211H36.5266C35.2193 29.4211 34.1582 28.36 34.1582 27.0527V22.3158C34.1582 21.0084 35.2193 19.9474 36.5266 19.9474H43.6319C44.9393 19.9474 46.0003 21.0084 46.0003 22.3158V27.0527C46.0003 28.36 44.9393 29.4211 43.6319 29.4211Z" stroke="white" stroke-width="2" stroke-linecap="round" stroke-linejoin="round"/>
<path d="M15.2109 8.10523H24.6846" stroke="white" stroke-width="2" stroke-linecap="round" stroke-linejoin="round"/>
<path fill-rule="evenodd" clip-rule="evenodd" d="M5.73684 1H10.4737C13.0908 1 15.2105 3.11974 15.2105 5.73684V10.4737C15.2105 13.0908 13.0908 15.2105 10.4737 15.2105H5.73684C3.11974 15.2105 1 13.0908 1 10.4737V5.73684C1 3.11974 3.11974 1 5.73684 1Z" stroke="white" stroke-width="2" stroke-linecap="round" stroke-linejoin="round"/>
<path fill-rule="evenodd" clip-rule="evenodd" d="M43.6319 46.0001H36.5266C35.2193 46.0001 34.1582 44.939 34.1582 43.6316V38.8948C34.1582 37.5874 35.2193 36.5264 36.5266 36.5264H43.6319C44.9393 36.5264 46.0003 37.5874 46.0003 38.8948V43.6316C46.0003 44.939 44.9393 46.0001 43.6319 46.0001Z" stroke="white" stroke-width="2" stroke-linecap="round" stroke-linejoin="round"/>
<path d="M34.1583 41.2631H27.053C25.7456 41.2631 24.6846 40.2021 24.6846 38.8947V8.10522" stroke="white" stroke-width="2" stroke-linecap="round" stroke-linejoin="round"/>
</svg>
