<svg width="50" height="43" viewBox="0 0 50 43" fill="none" xmlns="http://www.w3.org/2000/svg">
<path d="M45.9235 14.4026V7.30944C45.9235 4.04488 43.277 1.39844 40.0125 1.39844H9.27526C6.0107 1.39844 3.36426 4.04488 3.36426 7.30944V10.856" stroke="white" stroke-width="2" stroke-linecap="round" stroke-linejoin="round"/>
<path d="M45.922 26.2223V33.3155C45.922 36.58 43.2756 39.2265 40.011 39.2265H27.0068" stroke="white" stroke-width="2" stroke-linecap="round" stroke-linejoin="round"/>
<path d="M1 21.7352V37.8132C1.0027 39.9019 5.23431 41.5962 10.4576 41.5962C15.6809 41.5962 19.9125 39.9019 19.9152 37.8132V21.7352" stroke="white" stroke-width="2" stroke-linecap="round" stroke-linejoin="round"/>
<path d="M19.9125 21.7363C19.9125 23.8251 15.6782 25.5193 10.4549 25.5193C5.23161 25.5193 1 23.8251 1 21.7363C1 19.6448 5.237 17.9532 10.4576 17.9532C15.6782 17.9532 19.9125 19.6475 19.9152 21.7363" stroke="white" stroke-width="2" stroke-linecap="round" stroke-linejoin="round"/>
<path d="M1 29.7671C1 31.8559 5.23161 33.5501 10.4549 33.5501C15.6782 33.5501 19.9125 31.8559 19.9125 29.7671" stroke="white" stroke-width="2" stroke-linecap="round" stroke-linejoin="round"/>
<path fill-rule="evenodd" clip-rule="evenodd" d="M40.0126 14.405H45.9236C47.2294 14.405 48.288 15.4636 48.288 16.7694V23.8626C48.288 25.1685 47.2294 26.227 45.9236 26.227H40.0126C36.748 26.227 34.1016 23.5806 34.1016 20.316V20.316C34.1016 17.0515 36.748 14.405 40.0126 14.405V14.405Z" stroke="white" stroke-width="2" stroke-linecap="round" stroke-linejoin="round"/>
</svg>
