<svg width="36" height="45" viewBox="0 0 36 45" fill="none" xmlns="http://www.w3.org/2000/svg">
<path fill-rule="evenodd" clip-rule="evenodd" d="M33.0446 9.15567L26.2888 2.39989C25.3929 1.50406 24.177 1 22.9109 1H5.77778C3.13806 1 1 3.13806 1 5.77778V39.2222C1 41.8619 3.13806 44 5.77778 44H29.6667C32.3064 44 34.4444 41.8619 34.4444 39.2222V12.5336C34.4444 11.2674 33.9404 10.0515 33.0446 9.15567V9.15567Z" stroke="white" stroke-width="2" stroke-linecap="round" stroke-linejoin="round"/>
<path d="M34.4444 12.9444H24.8889C23.5702 12.9444 22.5 11.8742 22.5 10.5556V1" stroke="white" stroke-width="2" stroke-linecap="round" stroke-linejoin="round"/>
<path d="M9.35873 34.3605C9.35873 34.3533 9.35395 34.3485 9.34679 34.3485C9.33962 34.3485 9.33484 34.3533 9.33484 34.3605C9.33484 34.3676 9.33962 34.3724 9.34679 34.3724C9.35395 34.3724 9.35873 34.3676 9.35873 34.3605" stroke="white" stroke-width="2" stroke-linecap="round" stroke-linejoin="round"/>
<path d="M8.16699 20.1017H27.2781" stroke="white" stroke-width="2" stroke-linecap="round" stroke-linejoin="round"/>
<path d="M8.16699 27.2684H27.2781" stroke="white" stroke-width="2" stroke-linecap="round" stroke-linejoin="round"/>
<path d="M26.0814 34.4444C26.0814 34.4373 26.0766 34.4325 26.0694 34.4325C26.0623 34.4325 26.0575 34.4373 26.0575 34.4444C26.0575 34.4516 26.0623 34.4564 26.0694 34.4564C26.0766 34.4564 26.0814 34.4516 26.0814 34.4444" stroke="white" stroke-width="2" stroke-linecap="round" stroke-linejoin="round"/>
<path d="M17.7337 34.4164C17.7337 34.4092 17.729 34.4044 17.7218 34.4044C17.7146 34.4044 17.7098 34.4092 17.7098 34.4164C17.7098 34.4235 17.7146 34.4283 17.7218 34.4283C17.729 34.4283 17.7337 34.4235 17.7337 34.4164" stroke="white" stroke-width="2" stroke-linecap="round" stroke-linejoin="round"/>
</svg>
