<svg width="46" height="45" viewBox="0 0 46 45" fill="none" xmlns="http://www.w3.org/2000/svg">
<path fill-rule="evenodd" clip-rule="evenodd" d="M1 39.222V30.8606C1 28.8815 2.60437 27.2771 4.58347 27.2771H9.07236C10.0221 27.2773 10.9329 27.6545 11.6047 28.3259L13.9363 30.6575C14.832 31.5521 16.046 32.0548 17.3119 32.0551H27.6873C28.9552 32.0554 30.1713 31.5518 31.0677 30.6551L33.0482 28.6747C33.9438 27.78 35.1579 27.2774 36.4238 27.2771H40.4181C42.3972 27.2771 44.0016 28.8815 44.0016 30.8606V39.222C44.0016 41.8608 41.8625 43.9999 39.2237 43.9999H5.77796C3.13916 43.9999 1 41.8608 1 39.222Z" stroke="white" stroke-width="2" stroke-linecap="round" stroke-linejoin="round"/>
<path d="M5.78027 27.2788V5.77796C5.78027 3.13916 7.91944 1 10.5582 1H34.448C37.0868 1 39.226 3.13916 39.226 5.77796V27.2788" stroke="white" stroke-width="2" stroke-linecap="round" stroke-linejoin="round"/>
<path d="M15.333 10.5618H29.6669" stroke="white" stroke-width="2" stroke-linecap="round" stroke-linejoin="round"/>
<path d="M15.333 20.1137H29.6669" stroke="white" stroke-width="2" stroke-linecap="round" stroke-linejoin="round"/>
</svg>
