<svg width="43" height="46" viewBox="0 0 43 46" fill="none" xmlns="http://www.w3.org/2000/svg">
<path d="M13.4227 33.4836L8.64544 38.2609L5.77734 35.395" stroke="white" stroke-width="2" stroke-linecap="round" stroke-linejoin="round"/>
<path fill-rule="evenodd" clip-rule="evenodd" d="M13.9 43.9976H5.3C2.92425 43.9976 1 42.0734 1 39.6976V31.0976C1 28.7219 2.92425 26.7976 5.3 26.7976H13.9C16.2757 26.7976 18.2 28.7219 18.2 31.0976V39.6976C18.2 42.0734 16.2757 43.9976 13.9 43.9976Z" stroke="white" stroke-width="2" stroke-linecap="round" stroke-linejoin="round"/>
<path d="M33.2514 44.0018C28.502 44.0018 24.6514 40.1511 24.6514 35.4018C24.6514 30.7492 28.6074 26.7975 33.2578 26.8018C38.005 26.8061 41.8514 30.6546 41.8514 35.4018C41.8514 40.1511 38.0029 44.0018 33.2514 44.0018" stroke="white" stroke-width="2"/>
<path d="M33.6219 35.7671C33.8261 35.5629 33.8261 35.2296 33.6197 35.0275C33.4155 34.8233 33.0822 34.8233 32.878 35.0275C32.6737 35.2318 32.6737 35.565 32.878 35.7693C33.0822 35.9735 33.4155 35.9735 33.6219 35.7671" stroke="white" stroke-width="2" stroke-linecap="round" stroke-linejoin="round"/>
<path fill-rule="evenodd" clip-rule="evenodd" d="M14.9752 7.44824H10.6752C8.895 7.44824 7.4502 8.89304 7.4502 10.6732V10.6732C7.4502 12.4534 8.895 13.8982 10.6752 13.8982H14.9752C16.7554 13.8982 18.2002 12.4534 18.2002 10.6732V10.6732C18.2002 8.89304 16.7554 7.44824 14.9752 7.44824Z" stroke="white" stroke-width="2" stroke-linecap="round" stroke-linejoin="round"/>
<path fill-rule="evenodd" clip-rule="evenodd" d="M10.675 1H32.175C37.5177 1 41.85 5.33225 41.85 10.675V10.675C41.85 16.0177 37.5177 20.35 32.175 20.35H10.675C5.33225 20.35 1 16.0177 1 10.675V10.675C1 5.33225 5.33225 1 10.675 1Z" stroke="white" stroke-width="2" stroke-linecap="round" stroke-linejoin="round"/>
</svg>
